<?xml version="1.0" encoding="UTF-8" standalone="no"?>
<svg xmlns:rdf="http://www.w3.org/1999/02/22-rdf-syntax-ns#" xmlns="http://www.w3.org/2000/svg" height="251.88mm"
    width="345.1mm" version="1.1" xmlns:cc="http://creativecommons.org/ns#" xmlns:dc="http://purl.org/dc/elements/1.1/"
    viewBox="0 0 1222.8012 892.48138">
    <g transform="translate(1862.7 6373.4)">
        <path
            d="m-1249.4-6373.4c-7.9206 0.018-15.841 0.3018-23.746 0.8555-137 5.775-266.94 95.787-317.71 223.51-40.288 97.112-30.325 220.51 43.75 299 2.2375 3.9875 13.55 9.0387 9.3125 13.889-108.46-24-216.26-52.314-324.88-75.701 0.075 50.75 0.1246 101.51-0.025 152.28 140.86-6.3875 281.82-11.226 422.6-17.613-9.9625-27.2-24.425-53.55-35.162-80.85-42.75-62.05-46.561-146.13-18.299-214.96 43.412-111.81 171.96-179.64 289.04-155.84 78.538 12.8 150.15 64.149 185.89 135.36 37.75 70.688 38.076 162.92-5.8867 230.81-13.175 27.925-27.239 56.813-37.826 85.338 140.64 7.0125 281.42 11.612 422.12 17.75 0.375-50.725-0.1859-101.45 0.2891-152.16-108.3 23.312-215.84 51.3-324 75.65-3.3625 0.7125-2.5504-4.1016-0.5879-5.2891 39.775-36.688 63.65-88.099 72.963-140.89 17.188-106.04-25.426-217.32-103.74-289.54-67.216-65.084-160.64-101.82-254.1-101.61zm-613.01 731.46c-0.5875 53.625 0.1008 107.3-0.3242 160.95 96.938-10.612 194.38-16.637 291.75-20.762 310.24-10.738 621.54-9.4371 930.85 20.838 0-53.662 0.1496-107.33-0.088-160.96-114.8 10.175-230.07 18.276-345.32 21.863-292.31 8.375-585.5 5.3992-876.86-21.926z" />
    </g>
</svg>